<mxfile host="app.diagrams.net" modified="2020-12-24T11:59:44.801Z" agent="5.0 (Windows)" etag="cySQDPApuVjeym0FvP5M" version="14.1.2" type="github">
  <diagram id="hO-iebbVShHaD_YGvY22" name="Page-1">
    <mxGraphModel dx="2031" dy="1130" grid="1" gridSize="10" guides="1" tooltips="1" connect="1" arrows="1" fold="1" page="1" pageScale="1" pageWidth="827" pageHeight="1169" math="0" shadow="0">
      <root>
        <mxCell id="0" />
        <mxCell id="1" parent="0" />
        <mxCell id="AYwRItBsM_bN2aH5ezIg-1" value="" style="shape=image;imageAspect=0;aspect=fixed;verticalLabelPosition=bottom;verticalAlign=top;image=data:image/png,iVBORw0KGgoAAAANSUhEUgAAAIkAAACKCAMAAACpbplVAAADAFBMVEUAAAAAADMAAGYAAJkAAMwAAP8AMwAAMzMAM2YAM5kAM8wAM/8AZgAAZjMAZmYAZpkAZswAZv8AmQAAmTMAmWYAmZkAmcwAmf8AzAAAzDMAzGYAzJkAzMwAzP8A/wAA/zMA/2YA/5kA/8wA//8zAAAzADMzAGYzAJkzAMwzAP8zMwAzMzMzM2YzM5kzM8wzM/8zZgAzZjMzZmYzZpkzZswzZv8zmQAzmTMzmWYzmZkzmcwzmf8zzAAzzDMzzGYzzJkzzMwzzP8z/wAz/zMz/2Yz/5kz/8wz//9mAABmADNmAGZmAJlmAMxmAP9mMwBmMzNmM2ZmM5lmM8xmM/9mZgBmZjNmZmZmZplmZsxmZv9mmQBmmTNmmWZmmZlmmcxmmf9mzABmzDNmzGZmzJlmzMxmzP9m/wBm/zNm/2Zm/5lm/8xm//+ZAACZADOZAGaZAJmZAMyZAP+ZMwCZMzOZM2aZM5mZM8yZM/+ZZgCZZjOZZmaZZpmZZsyZZv+ZmQCZmTOZmWaZmZmZmcyZmf+ZzACZzDOZzGaZzJmZzMyZzP+Z/wCZ/zOZ/2aZ/5mZ/8yZ///MAADMADPMAGbMAJnMAMzMAP/MMwDMMzPMM2bMM5nMM8zMM//MZgDMZjPMZmbMZpnMZszMZv/MmQDMmTPMmWbMmZnMmczMmf/MzADMzDPMzGbMzJnMzMzMzP/M/wDM/zPM/2bM/5nM/8zM////AAD/ADP/AGb/AJn/AMz/AP//MwD/MzP/M2b/M5n/M8z/M///ZgD/ZjP/Zmb/Zpn/Zsz/Zv//mQD/mTP/mWb/mZn/mcz/mf//zAD/zDP/zGb/zJn/zMz/zP///wD//zP//2b//5n//8z///8AAABvb2+ioqJxcXHi4uJqamoYGBgiIiJmZmZSUlJbW1t6enp8fHx1dXVgYGBsbGxAQEA4ODgtLS09PT0NDQ0JCQlUVFReXl5QUFAlJSWpqakTExMoKCg+Pj4GBgYuLi4pKSlGRkYrKytKSkpHR0fv7+7e3t/7/PxVgQisAAAA2XRSTlP///////////////////////////////////////////////////////////////////////////////////////////////////////////////////////////////////////////////////////////////////////////////////////////////////////////////////////////////////////////////////////////////////////////////////////////////8A9EGGvAAAAAlwSFlzAAAOxAAADsQBlSsOGwAABzZJREFUeJztnFmS5CgMQPM+vg/zNYfRnEd/c5f2dcZIYNBmA86unI5IKiKr0mZ5LBaSkOu1/1/S69MAZ/qS2PQlselLYtOXxKYLEjzS+xrCu+oiEgQqevx6CwbAbW0BSeN/x7g0govafJK+wHOUsdpcEpmdvgCsQeTREEVDFJdEtprLrq6XY33otqdIKHNeZVC/4rZIkmrTuTacJcFKslcS/HttdgASNpJSb4ByQXLUkQoJ/LNGkvAg4ZLHJyySMAN/4vKChW46FsYELtfY3QJElBd1bRMke0riqxwPFpdH9UByGEzNOUNfBLaL2m5IUJCopvJCpufgGHpoD1jXD5TDkNdKWNslCSTYuB1wxMFemsfcJBPpfojpxXTU12oLhyRYsWlLiSchpRR1YjS12jClWC75MrZvHbagGxm0S+Gmf4xK8OWOxGSGZLLQYJWtviSgSxZHLX/ZzUsSR7CrNee32AjFPTsG6KNYEi9fe5ggU3gVdZn7PN5koBljl8SfRyBhjfcYDYaVCbdRF0WT+Lx5pHAbxDhhDvrNv+l1V5NEz+zxKL6ihyhiuZAATn8ViR6StvhWFBTUQ3LKSQdRkXSqL9APmjszJEW/ITkMpcb+zgVJGxLgXeUs4ZS9TVBVrrw5VTGIqqF7EqQttZEES/kqlTnIUo82I2jm1wSJTg9I3Ft/IgmvkrZOn5HQVHe1TZBwUXwXSdauoNeGb0lay0DPTXtiVnRq6EqXRVu+O/3Skq21p8ykcM6v5EyKcjn9MtI+am8LUIp+TY8nlDktm19Kr3VpH07CsQP6u3TColkbHRvS5m/FfitWK/BVoERVOyK/jAkUO/7UsQ/woz2ffkgrCJ6Rwpd1IO+2qYSg0x50zL1odTZvRDvBMKiztfw2t98b197R5qe8kDsc0qBWLw1KpN279o5Uxx19B4seL407vmiqk+Uj1T7wsx02Dlaq2Nwhu+JMEA4Unuo+hsZT6PFLWFoBfG4E7n1tW8Trk/SNp5e2neZB2t/4ila8b432Qxjbj4MJ1aoLsrkrVijCGK6xwSSLQyR3PRI9CCsKQde0Lj1sFzsNPxoUW9jvmCfZHJt6HcQp6++yDokn7ddJvPF0bdSehC2kTk2jPZX+grznxs6aKxLnmjsoL5EhqxZNw4NT9chbq1SwBxJ1zDXYbrWCAxWxU6rJo8eGYOJfMwcJrJD7i927KmaHVbP2Pfeq6IU8MzOzwy7brvfFkUsDlbQR42lKoSdnMiHp8pKkTva+oTJiHBJ//Fef475fwC5t0rhp65a3B0lWn2O5g/mEEUnk3VojiV1U6yRrAn/CvfUxEnPjUyR2OX6MxCzZT5HYh+dL8oBkCeQRyXulfbhf/ThJ6E8eIIn3Ynv2eJFY34NTxzHHlvWE1SHhy1k/qWqJrBicA9kwZX0vIatYrrLHJP5eTMpitrrBKZy6EIU5koR6+z9JpEfjpQsjg0gNNC8TmHqUSwxBbcw5aNeXJQkf6mJRG3W5pRT5/O73nZ+wd9zLn7ABicRc8exiY6K92S7ex3S2/bf7CujigB7LKCLjU/+J0+yAtzwnPurtvur7p728e1KQjOs+t3UjeaPszk569Tl1KSzmGwnr8pcUyOIkB9JmFt6Q356RN2jeQiuo+Ydsp3pmIAQyyABD6GrzOxeSXPtj6bSg2Mv1t/QRK0u+OVLLvI+dIOzG2xg4ZJVjOAwFUcsk+w8HTxA8v71+rGscjLhYY2F0YXPBd4TOnmXsNtZFtoOSxpuIQZL4fCc3PxAII49VHpzvxGdeCd1DrwiGskb73wBJfA6YJuNP6ATjwTlguMVsafDkrWcJg1buZWwHq8T4yuYjhgRLjbqdiKS5QItAdxiHUykD575wxtbcawUtQw5X7EnW4wp4b+AAyJVImCrGn5PsJeRfVPhHxp9Q69iirZ6TlGOBKRIOUdqFBfaABEqIMRZNYoyk2El8lkDaRw2TfxC7hXwy0dU2GglTAqVr2EJ3x0+sTmKTGac6Um6XYGc8NZd7z3A8ByrmSHCVgOCqS0Ils/aKrS0iuXAqd4oXqBEqxy5IoR41AAW2VxQ9M6Tbx7GgFGbBJHpwq0lNo1MeEFYNHsSCXsTHdgNz577g+NgUxce6V39XzPBecB/EDHtx1LIPHGLiK1Qm/ORJHLVVoB0bjvV6GVvOoR+mlfXYcp35HfH2vYY9+V7GRsdjQF0PSg6nwwZstU29g8BPSHsv42HQB2mdi+9lKMHz8DU8ZfJNvvumlIPzYz7l426ntlES5725Ve9jagrO+a7WDAl9nC7kCxPqLmXzvARkrryFd74P2L22tvgIJWwkp7d4hqTu6pXkV1p0ySb8q5LUGZ6SJ50TjT9/eV67kYTwrx6FqTGR6se5m60mU9sEyXvf6t2HaovedD778VDCqvYvNIrw7e+a3gEyVN3NG/FvAhmp7Y/4LwE/nL4kNn1JbPqS2PQlsek/QDYmir/YHm8AAAAASUVORK5CYII=;base64,iVBORw0KGgoAAAANSUhEUgAAAWMAAACxCAMAAAAmnSxDAAADAFBMVEUAAAAAADMAAGYAAJkAAMwAAP8AMwAAMzMAM2YAM5kAM8wAM/8AZgAAZjMAZmYAZpkAZswAZv8AmQAAmTMAmWYAmZkAmcwAmf8AzAAAzDMAzGYAzJkAzMwAzP8A/wAA/zMA/2YA/5kA/8wA//8zAAAzADMzAGYzAJkzAMwzAP8zMwAzMzMzM2YzM5kzM8wzM/8zZgAzZjMzZmYzZpkzZswzZv8zmQAzmTMzmWYzmZkzmcwzmf8zzAAzzDMzzGYzzJkzzMwzzP8z/wAz/zMz/2Yz/5kz/8wz//9mAABmADNmAGZmAJlmAMxmAP9mMwBmMzNmM2ZmM5lmM8xmM/9mZgBmZjNmZmZmZplmZsxmZv9mmQBmmTNmmWZmmZlmmcxmmf9mzABmzDNmzGZmzJlmzMxmzP9m/wBm/zNm/2Zm/5lm/8xm//+ZAACZADOZAGaZAJmZAMyZAP+ZMwCZMzOZM2aZM5mZM8yZM/+ZZgCZZjOZZmaZZpmZZsyZZv+ZmQCZmTOZmWaZmZmZmcyZmf+ZzACZzDOZzGaZzJmZzMyZzP+Z/wCZ/zOZ/2aZ/5mZ/8yZ///MAADMADPMAGbMAJnMAMzMAP/MMwDMMzPMM2bMM5nMM8zMM//MZgDMZjPMZmbMZpnMZszMZv/MmQDMmTPMmWbMmZnMmczMmf/MzADMzDPMzGbMzJnMzMzMzP/M/wDM/zPM/2bM/5nM/8zM////AAD/ADP/AGb/AJn/AMz/AP//MwD/MzP/M2b/M5n/M8z/M///ZgD/ZjP/Zmb/Zpn/Zsz/Zv//mQD/mTP/mWb/mZn/mcz/mf//zAD/zDP/zGb/zJn/zMz/zP///wD//zP//2b//5n//8z///8AAAA9PT03NzcxMTEcHBwtLS0FBQUiIiIQEBC6urohISFubm4KCgoWFhYqKioXFxcPDw85OTkGBgZFRUU6OjooKCh+fn42NjZOTk5ZWVkbGxsUFBQZGRkrKysgICBxcXE+Pj4pKSkAAAAAAAAAAAAAAAAAAAAAAADm/mQtAAABAHRSTlP///////////////////////////////////////////////////////////////////////////////////////////////////////////////////////////////////////////////////////////////////////////////////////////////////////////////////////////////////////////////////////////////////////////////////////////////8A////////////////////////////////////////////AAAAAAAAZ3rRbgAAAAlwSFlzAAAOxAAADsQBlSsOGwAACBdJREFUeJztndFhhCAMhtmHfdiHfbLPrVOBIKigKAlazf/QXkEDfCJiDlL1E3FL3V2BD0gY80sY80sY80sY80sY80sY80sY80sY80sY80sY80sY80sY80sY80sY80sY80sY80sY80sY80sY80sY80sY80sY80sY80sY80sY80sY80sY8+tGxtaad8lCuaG3MQZjKlX6r4Jak+5ibN9G2AuMLaTexNiW6vIGlcaLexiDuaXYAYLC/XkP41cOFEGwvUNVyiMQNLLb7cZAU5VmKBTFZQ3ftg0ZT4P1dFyvptlYU9sK1zrJ2aCpShNhkoaDTVOK7T2qsF1UN29pPNpo74nXhqZFLc/Vpuo2aba07WUq5BMV1Ghrp7NTTjga7inCB0NseIVx++DVoAZjO4dQTjiOLzfpFBKNVRiTzqR2B9tfpRonTj6hw15KOr/BSzqE8bG1OmPad5PDW4p2mj6OcYO1HcakE2dhfC7nioTxuZwrEsbncq5IGJ/LuSJhfC7nil7FePGViw6/lkUtHC/GbN02ixzU9QodWcPq6EtepJp4GWvnF5mweu9I8JKs/A7B8zKhV1op9MIsig2nLQ7oeEMwc4VstLaAnKpjQJeqc6nQYJqLsTc+9QsFKr62rxhDSFRKz61ZMv7FA6D+VtosM1fIxOJWjOfSQEGhOpcLZWdsMteIWTr/kLFrXGzt4ogIYsq06HAlYGx+yY+Q+zAjY1eafgpj1wHr78mRsc0ZL5zYJjG20cjiiIxx/c2/WZGxu6KlCpmZMcBTGIP2HUGdYFweK/KHT3GscJeDkvFcXHGssG64KA1dlwu9zhhPPNOPa4zdIy2v07KCrmcpHCFJGM/FVRi7B3ahOpcL5WNc0JIxFGZ3iyMWOaY0/YtVcaOWjdehoiNrUDqg3HI/SM4XYrfQcELXWGHavjDhfQfBUavJC0rwDhKK+8H+Jc2tcT3zCkXtGutgjEfYlkULBIxjcQP68RkNYdz7vWFQa1XT5OPY2gsYh1HLNL2WUY0VJk0+jq29gHEYteDgmddorXmQHPHMOyPxu60kjOkkjEsSxt0SxudyrkgYn8u5ImF8LueKhPG5nCt6LWNZ77ZO//a6TdLbBnbXxtIuw214Ha4fQrla9VHrjylb1unXpezIqVVVH8e4dfSE2yJsy7iz19UJ1pIEZSs8gqO95Ksrbwy9InuwH8R1n+XXyNe0/v6oWp89jGAoqmLz75ZieaV7jKTh+S6qKmPXNgq1ED4csklqkhcRv8wo32PEpe0xHijaWfCx0NE+Zo/2RxmHZ15adMBb1kcZj9RTGL81soLTQxjTvs09TA9hTOwneJa2bZP4FcQqvMBLHBZiPSYOy3ufeqWG3RUXiy5MxaNUfJW8Lb7bG4OPVWK/3Ben0C0BJnHHPEW1BdP3xtsk8cY8R7VmSkxTfgljfgljfgljfgljfgljfgljfgljfgljfgljfgljftEwHhsVeqcexPGiaUTB2IU+6veo2G5vp1vF1V8PaAyU3S4CxmTuduj7doQhXjSN+hkPjgpdF8M6Vxp1MyatTo8xjvXaNOpnPHZ3AcupW5G2qpvx4J1IdY3enNUuYcxvTRjzWxPG/NaEMb81YcxvTRjzW7uf8WH06Z2yc2G86M7aRL2LcYJrlIqo207VeKqPSx0XdnVWB/Uyxt6A64gqRUZuOzXGQXXXJloTxlUDvvPOAR7NsQfSKcWadRHE8Y/O6sQa0JjxGsE47ggvNz+P8D1HUW/zpuvffGoxIvq5iiz0zxhjpNdawxJjU45UX1cpLvUOv7g1/dccc5BGAxgjRF2J3pgYp+AHpxmnuNQ7jENJulaRgmkaDWP8q0UhhTzQs9Y74Z43Kv1bkmPGTeFQ/xlj0kivdbXGgG2ryD9jTBrpta7WGLBtFflvjMdYk3dpfmvCmN+aMOa3Joz5rQljfmvCmN+aMOa3Joz5rQljfmvCmN/amxmPjQpd14sZy7rNQ8n6Y35jz1pH39UX37uOnhByZ8BnhnjRNKLY18QQFfqayONF04hofx6FXlWRXLLPlF/CmF/CmF/CmF/CmF/CmF/CmF/vZWz16lXCtvwfbg4NZWy1UnpUQ80aqVV6UNErjWRslFcFMqz7XXdpH2QcFrBXPTfUt/InGVfbiKuzExPY5m6dCNt0WHxMjON/HfsE43lLDTbfrVKFaYwOK1bjOOKGlDBuaOX/sO7UHFAp3Xg7gPmTJSwE5vQvMIaZAdK2ga2e8EBA4dC6rXY60J5SlOflPmSECunut0sC/BwvmA321e8bjH3f8z5iiCwMNjx0M9/vrL8Q1h/h+6pHBpiCld6kh5/gLOJnvEzab2LC9A8w9rc2tjx0U8gajowDlJ+nGHZ54SELxut0HS+Qmj/nXP2vbzAOlA2y8G0GFbfLIWN3b7vduYFxNo7qtK1umx4vgPuNnw0W5PfjzOXdoeHveRpHAYvQ/EAcRk5kjDrDGGqMTbT2oX78wxt9AgBxmgHhHzTOjCE7tL8fJ66fYgx+iDCpyTmODOUJxpiJ4zFO/D7IWPs5hQndV+M4bENawmFwgud+tDM22bwiWDBx+hdmyfARxjiFjT0OWfvpa+ja3mGk0oy2nbE/C+fK3tBifmw+M3cD/wBCzw9gB7N6TjPI36g0xSszLqTDTBU/W4sX02eEOfcXfJs/WD/PfBqss68tccjPglrGHbrLR5+cF+/XXS3Vd924N+gmxm0bw1+i79yx90kY80sY80sY80sY80sY80sY80sY80sY8+sPrcT7D9kBrsQAAAAASUVORK5CYII=;base64,iVBORw0KGgoAAAANSUhEUgAAAUMAAACMCAMAAADRJDvgAAADAFBMVEUAAAAAADMAAGYAAJkAAMwAAP8AMwAAMzMAM2YAM5kAM8wAM/8AZgAAZjMAZmYAZpkAZswAZv8AmQAAmTMAmWYAmZkAmcwAmf8AzAAAzDMAzGYAzJkAzMwAzP8A/wAA/zMA/2YA/5kA/8wA//8zAAAzADMzAGYzAJkzAMwzAP8zMwAzMzMzM2YzM5kzM8wzM/8zZgAzZjMzZmYzZpkzZswzZv8zmQAzmTMzmWYzmZkzmcwzmf8zzAAzzDMzzGYzzJkzzMwzzP8z/wAz/zMz/2Yz/5kz/8wz//9mAABmADNmAGZmAJlmAMxmAP9mMwBmMzNmM2ZmM5lmM8xmM/9mZgBmZjNmZmZmZplmZsxmZv9mmQBmmTNmmWZmmZlmmcxmmf9mzABmzDNmzGZmzJlmzMxmzP9m/wBm/zNm/2Zm/5lm/8xm//+ZAACZADOZAGaZAJmZAMyZAP+ZMwCZMzOZM2aZM5mZM8yZM/+ZZgCZZjOZZmaZZpmZZsyZZv+ZmQCZmTOZmWaZmZmZmcyZmf+ZzACZzDOZzGaZzJmZzMyZzP+Z/wCZ/zOZ/2aZ/5mZ/8yZ///MAADMADPMAGbMAJnMAMzMAP/MMwDMMzPMM2bMM5nMM8zMM//MZgDMZjPMZmbMZpnMZszMZv/MmQDMmTPMmWbMmZnMmczMmf/MzADMzDPMzGbMzJnMzMzMzP/M/wDM/zPM/2bM/5nM/8zM////AAD/ADP/AGb/AJn/AMz/AP//MwD/MzP/M2b/M5n/M8z/M///ZgD/ZjP/Zmb/Zpn/Zsz/Zv//mQD/mTP/mWb/mZn/mcz/mf//zAD/zDP/zGb/zJn/zMz/zP///wD//zP//2b//5n//8z///8AAAAYGBgqKio8PDwODg4vLy9KSkozMzM7OztBQUEyMjIgICAAAAAAAAAAAAAAAAAAAAAAAAAAAAAAAAAAAAAAAAAAAAAAAAAAAAAAAAAAAAAAAAAAAAAAAAAAAAAAAAAAAAAAAAAAAAAAAAAAAAAAAAAAAAAAAABHQyoQAAABAHRSTlP///////////////////////////////////////////////////////////////////////////////////////////////////////////////////////////////////////////////////////////////////////////////////////////////////////////////////////////////////////////////////////////////////////////////////////////////8A//////////////8AAAAAAAAAAAAAAAAAAAAAAAAAAAAAAAAAAAAAl/LJOQAAAAlwSFlzAAAOxAAADsQBlSsOGwAACNdJREFUeJztnQmWrCAMRWs/7sf9sJ/sx+20JmEQGQ0KXcU7//zqQTFeGUKI9GebkurT24Av0GQo12Qo12Qo12Qo12Qo12Qo12Qo12Qo12Qo12Qo12Qo12Qo12Qo12Qo12Qo12Qo12Qo12Qo12Qo12Qo12Qo12Qo12Qo12QoVzOGoIrV6pIRrZ9SrW0u2IzhupYibGR53BIoVCtL2jGEwgPheYaFB7ayZDKUazKU6w2GcP54iyGA/s83pLEl7RkqOAZp5zeg6GYU3cM7DGE7Bg22BOjb3XUA+gKaWiJnyKPtcpil0Fj8Qt/GbveqyHxFMBfxJZMCsuR4ZK4laCT+v3+zsiUrSupsiRnC4jAE5Vh+fBBAQMuVsfxJD3FdyZJ1U/hEieHh8CDW/T+0B01nL0j6UOUMuUFQW94pIUZs0NjzYMM5zAbgRr3CWtzt10otii058AFYSw5jgA3aTm1Z3KTbMsz610An7HXxCYr0cFYomTVtozIsP0EtzYcWXb1rfZt/y5CaHf8E+yfq8e8bYsr7IYb7F3zXzPDoSW8zBFuvxQzXMpnj2zG8EXPg1kcMAZ23u0Y44AoR7AN4jGFRxMKSa8Yw2IsvkXElfPO3ZbsFKjSgJfTD8x0YlbXtBxgGVWCNfHDxCFZb8v8ZFjJIXL+oJn85Qzu43Ln6kiRIvjQkJ5j2Dng2agY9LvqYOOiyrF5kyJOG9Ghxt1vEKpw4cx88cYKHVlLA4eo+6eFZLcf6wO79kwOL0y2e7xx+F+B0cVO6iNcY7tPl43HitXGWxfPAQDH1FM2wTkGGQMHHpTesRevxoZDF5aAF5ayzqI2CFnzsqoB8V4LJZbzHUNlp6qbgOjBbqcr5n6ZOnjnd2+UYrDcHw4WCSBiJ8A9aKC7GFBfqHlZFLZvCFmQ3I6RG/l5bJoYKLVFH6EYFWhOranAxB2MoBhmGPXTqRxbd5q/PyXX68TmuVCq3G/1LDEI657/HUAdv+F7Aiyz7ZZVSPHlEFLBOn1A0prCIYUrv1sPq0koa9I3Os5ZhXsMyLOJzxxX6KYbZweWeS/5jDBFTdKp/05OsmqcUKcxwqYz5nCxQ4chIQOf4QPi+VMyW9LSEiiyOOUCYYfT5hSIWHsNP0aleqzCxr3jV8XQymRc81OY5d7HaVlCzy2qCrQ5NY7CfolYSqYc3swvQuYOrhyxh2DOO3YkhrwNsk+HtLJdLRkesOAhcPaQhGIL9DLgR5MWbkeHC8JrlYtaaK0zWxTmza6WvXnjqVXD6eI4hmNwAilDsYwCiNHGR1QSJlGuBznKhfBuOGtEYp3S+Sz7LxQ48PH9TlJmgdMZlBUO09xTh4K/V+Wk2Zwgc5zAMTzGf4+dukAiDRo7TATrLheoeUL4NFkIZL1hAyYipfZhV6WAFjTnhk92pLOfbbDzUkyVKT4A54YKzVvBxqZa5IheGFHIzDKk1LTpI9KFUmsWpODpQqDjuS+jBMETLy9sy3T7ooBP+/Oq+uUuG9mkqIIS8/KrTldQ58+fqsLZguBI8TuACk7RiVi5XCvnqK5/7Qwjm21ARJt+mnKE5VemuoLgtH8vVx6PVT1PHsblI13SprvUwF/NJjcvJk7mAeoZa2/XqoYlO6NSrtucY5tXat4lcpdQ/ZBya8TYZ2qsUMrQrASY83jUfeyyGYfkxB3clQA/lXRkWzdNjMYfCqM/qB37Cd6c9Jl2qKd2PHpq2bHrG4ujHE+/4FF7av93E2Yksl4ScGKHxO+yTy8Zgg1G4oBrlNA8Yg3Ug2cKdxUBBWsQzGo7hqZo5XZvbhTyY0H1HgzE803E7rPOq9FAUH19f5knDFshuAJ2MY0M6ZzLuIOzHzx9I6L6rx/NtbLINZ7rajBeFk2x8hwUrmT9anKveZQSQ5dw11Du5Ipxvs1NZlctQ+8dYUS9ey5L6dhtncHmeIQYh+B+Fwpz3AXg9agutefoVL+CKjNEtjjGmhFhclyxDcb4RKA7BMNgmr2zCPnH/wWUAhuGxITARiyUE9x5cujOMvboXSmiITc46Dy7tGN6aL0e7s2CiZ/x5de0W270ndSduE60/kWab2vCgH8WO7+ul+rFIq72O1RuvXW0dB5ee740mFtNjNPxTFL3px05np8GlF8N004v+zodrotjAKyQ9KPZhmLnXRIDZuwzvHWKj2D26xfYMaWXcjbjwWrNdkM61uUSiZn4N5KBYH46XqMG+ImSS2VXGzbcBzFCgfAjQa/RLrqok36YvqGbRJFpXDRu9fH8bbdMp34YxUKKM3ZuF8m0yFNJ7pZQsJJWMzw23EGy8z5K3N4uijA1vb5brySeqmaWifEZ20ZrnsAy58er8GF9xhpznhg8gQyBfEf8/w1xHHrpDxa/HHfyzHV62IoYZwuljXIYlijDEvLYdcnAJX0drMXEwWxHtFhOuTTqBU3/7bQydHjFYy867t2QHJUx35kxNeoXZ5JGCjqMPyfDe+ym+wrcGAM7bA7mKaF6E57qnEzgxd09xKvmIDNtkaKT9Gl3/MhWRZ5OwmXRcvaTobDo3IsM2KkuBydy/bsvJoe1rGZZms6Wz0H+bYenAlAbwb/3DFipOCMx0m7/MsODFWlZmYCrwDr6UYUVOZboiit2DOg3EsGpv20f35a3UQAyrsDy9Q3SNxmFYmaU/UEUch2HlOshAFXEYhtUvOoxTEUdhmF0huJ7RO93LqA/DwBJRYB3pdMr194Gf9KmanRgWVDqvnr0896hRJ4YFx0yGaU2GcrVi+Nw6U436MqzYw8Vm3HmnOMX8HkPz54rcPVxoZRp/fWVIrwjRqeZP8/CfCDqO+T2Geuff8x4udtePQD08DrI76erdSswpv8cQ1s3mlOj0CGf3mQBDelGITgG9Ucgv10OAUE5JLC/HnPLOGkmN+jHE1hjeCgYCe7i8vM5Uo//t23iaDD3dYHjdqP0VzfmyXH0YLiVaq0/5/BLD79JkKNdkKNdkKNdkKNdkKNdkKNdkKNdkKNdkKNdkKNdkKNdkKNdkKNdkKNdkKNcfd58wRMx+6IkAAAAASUVORK5CYII=;" parent="1" vertex="1">
          <mxGeometry x="100" y="340" width="168.77" height="170" as="geometry" />
        </mxCell>
        <mxCell id="AYwRItBsM_bN2aH5ezIg-2" value="" style="shape=image;imageAspect=0;aspect=fixed;verticalLabelPosition=bottom;verticalAlign=top;image=data:image/png,iVBORw0KGgoAAAANSUhEUgAAAUMAAACMCAMAAADRJDvgAAADAFBMVEUAAAAAADMAAGYAAJkAAMwAAP8AMwAAMzMAM2YAM5kAM8wAM/8AZgAAZjMAZmYAZpkAZswAZv8AmQAAmTMAmWYAmZkAmcwAmf8AzAAAzDMAzGYAzJkAzMwAzP8A/wAA/zMA/2YA/5kA/8wA//8zAAAzADMzAGYzAJkzAMwzAP8zMwAzMzMzM2YzM5kzM8wzM/8zZgAzZjMzZmYzZpkzZswzZv8zmQAzmTMzmWYzmZkzmcwzmf8zzAAzzDMzzGYzzJkzzMwzzP8z/wAz/zMz/2Yz/5kz/8wz//9mAABmADNmAGZmAJlmAMxmAP9mMwBmMzNmM2ZmM5lmM8xmM/9mZgBmZjNmZmZmZplmZsxmZv9mmQBmmTNmmWZmmZlmmcxmmf9mzABmzDNmzGZmzJlmzMxmzP9m/wBm/zNm/2Zm/5lm/8xm//+ZAACZADOZAGaZAJmZAMyZAP+ZMwCZMzOZM2aZM5mZM8yZM/+ZZgCZZjOZZmaZZpmZZsyZZv+ZmQCZmTOZmWaZmZmZmcyZmf+ZzACZzDOZzGaZzJmZzMyZzP+Z/wCZ/zOZ/2aZ/5mZ/8yZ///MAADMADPMAGbMAJnMAMzMAP/MMwDMMzPMM2bMM5nMM8zMM//MZgDMZjPMZmbMZpnMZszMZv/MmQDMmTPMmWbMmZnMmczMmf/MzADMzDPMzGbMzJnMzMzMzP/M/wDM/zPM/2bM/5nM/8zM////AAD/ADP/AGb/AJn/AMz/AP//MwD/MzP/M2b/M5n/M8z/M///ZgD/ZjP/Zmb/Zpn/Zsz/Zv//mQD/mTP/mWb/mZn/mcz/mf//zAD/zDP/zGb/zJn/zMz/zP///wD//zP//2b//5n//8z///8AAAAYGBgqKio8PDwODg4vLy9KSkozMzM7OztBQUEyMjIgICAAAAAAAAAAAAAAAAAAAAAAAAAAAAAAAAAAAAAAAAAAAAAAAAAAAAAAAAAAAAAAAAAAAAAAAAAAAAAAAAAAAAAAAAAAAAAAAAAAAAAAAAAAAAAAAABHQyoQAAABAHRSTlP///////////////////////////////////////////////////////////////////////////////////////////////////////////////////////////////////////////////////////////////////////////////////////////////////////////////////////////////////////////////////////////////////////////////////////////////8A//////////////8AAAAAAAAAAAAAAAAAAAAAAAAAAAAAAAAAAAAAl/LJOQAAAAlwSFlzAAAOxAAADsQBlSsOGwAACNdJREFUeJztnQmWrCAMRWs/7sf9sJ/sx+20JmEQGQ0KXcU7//zqQTFeGUKI9GebkurT24Av0GQo12Qo12Qo12Qo12Qo12Qo12Qo12Qo12Qo12Qo12Qo12Qo12Qo12Qo12Qo12Qo12Qo12Qo12Qo12Qo12Qo12Qo12Qo12QoVzOGoIrV6pIRrZ9SrW0u2IzhupYibGR53BIoVCtL2jGEwgPheYaFB7ayZDKUazKU6w2GcP54iyGA/s83pLEl7RkqOAZp5zeg6GYU3cM7DGE7Bg22BOjb3XUA+gKaWiJnyKPtcpil0Fj8Qt/GbveqyHxFMBfxJZMCsuR4ZK4laCT+v3+zsiUrSupsiRnC4jAE5Vh+fBBAQMuVsfxJD3FdyZJ1U/hEieHh8CDW/T+0B01nL0j6UOUMuUFQW94pIUZs0NjzYMM5zAbgRr3CWtzt10otii058AFYSw5jgA3aTm1Z3KTbMsz610An7HXxCYr0cFYomTVtozIsP0EtzYcWXb1rfZt/y5CaHf8E+yfq8e8bYsr7IYb7F3zXzPDoSW8zBFuvxQzXMpnj2zG8EXPg1kcMAZ23u0Y44AoR7AN4jGFRxMKSa8Yw2IsvkXElfPO3ZbsFKjSgJfTD8x0YlbXtBxgGVWCNfHDxCFZb8v8ZFjJIXL+oJn85Qzu43Ln6kiRIvjQkJ5j2Dng2agY9LvqYOOiyrF5kyJOG9Ghxt1vEKpw4cx88cYKHVlLA4eo+6eFZLcf6wO79kwOL0y2e7xx+F+B0cVO6iNcY7tPl43HitXGWxfPAQDH1FM2wTkGGQMHHpTesRevxoZDF5aAF5ayzqI2CFnzsqoB8V4LJZbzHUNlp6qbgOjBbqcr5n6ZOnjnd2+UYrDcHw4WCSBiJ8A9aKC7GFBfqHlZFLZvCFmQ3I6RG/l5bJoYKLVFH6EYFWhOranAxB2MoBhmGPXTqRxbd5q/PyXX68TmuVCq3G/1LDEI657/HUAdv+F7Aiyz7ZZVSPHlEFLBOn1A0prCIYUrv1sPq0koa9I3Os5ZhXsMyLOJzxxX6KYbZweWeS/5jDBFTdKp/05OsmqcUKcxwqYz5nCxQ4chIQOf4QPi+VMyW9LSEiiyOOUCYYfT5hSIWHsNP0aleqzCxr3jV8XQymRc81OY5d7HaVlCzy2qCrQ5NY7CfolYSqYc3swvQuYOrhyxh2DOO3YkhrwNsk+HtLJdLRkesOAhcPaQhGIL9DLgR5MWbkeHC8JrlYtaaK0zWxTmza6WvXnjqVXD6eI4hmNwAilDsYwCiNHGR1QSJlGuBznKhfBuOGtEYp3S+Sz7LxQ48PH9TlJmgdMZlBUO09xTh4K/V+Wk2Zwgc5zAMTzGf4+dukAiDRo7TATrLheoeUL4NFkIZL1hAyYipfZhV6WAFjTnhk92pLOfbbDzUkyVKT4A54YKzVvBxqZa5IheGFHIzDKk1LTpI9KFUmsWpODpQqDjuS+jBMETLy9sy3T7ooBP+/Oq+uUuG9mkqIIS8/KrTldQ58+fqsLZguBI8TuACk7RiVi5XCvnqK5/7Qwjm21ARJt+mnKE5VemuoLgtH8vVx6PVT1PHsblI13SprvUwF/NJjcvJk7mAeoZa2/XqoYlO6NSrtucY5tXat4lcpdQ/ZBya8TYZ2qsUMrQrASY83jUfeyyGYfkxB3clQA/lXRkWzdNjMYfCqM/qB37Cd6c9Jl2qKd2PHpq2bHrG4ujHE+/4FF7av93E2Yksl4ScGKHxO+yTy8Zgg1G4oBrlNA8Yg3Ug2cKdxUBBWsQzGo7hqZo5XZvbhTyY0H1HgzE803E7rPOq9FAUH19f5knDFshuAJ2MY0M6ZzLuIOzHzx9I6L6rx/NtbLINZ7rajBeFk2x8hwUrmT9anKveZQSQ5dw11Du5Ipxvs1NZlctQ+8dYUS9ey5L6dhtncHmeIQYh+B+Fwpz3AXg9agutefoVL+CKjNEtjjGmhFhclyxDcb4RKA7BMNgmr2zCPnH/wWUAhuGxITARiyUE9x5cujOMvboXSmiITc46Dy7tGN6aL0e7s2CiZ/x5de0W270ndSduE60/kWab2vCgH8WO7+ul+rFIq72O1RuvXW0dB5ee740mFtNjNPxTFL3px05np8GlF8N004v+zodrotjAKyQ9KPZhmLnXRIDZuwzvHWKj2D26xfYMaWXcjbjwWrNdkM61uUSiZn4N5KBYH46XqMG+ImSS2VXGzbcBzFCgfAjQa/RLrqok36YvqGbRJFpXDRu9fH8bbdMp34YxUKKM3ZuF8m0yFNJ7pZQsJJWMzw23EGy8z5K3N4uijA1vb5brySeqmaWifEZ20ZrnsAy58er8GF9xhpznhg8gQyBfEf8/w1xHHrpDxa/HHfyzHV62IoYZwuljXIYlijDEvLYdcnAJX0drMXEwWxHtFhOuTTqBU3/7bQydHjFYy867t2QHJUx35kxNeoXZ5JGCjqMPyfDe+ym+wrcGAM7bA7mKaF6E57qnEzgxd09xKvmIDNtkaKT9Gl3/MhWRZ5OwmXRcvaTobDo3IsM2KkuBydy/bsvJoe1rGZZms6Wz0H+bYenAlAbwb/3DFipOCMx0m7/MsODFWlZmYCrwDr6UYUVOZboiit2DOg3EsGpv20f35a3UQAyrsDy9Q3SNxmFYmaU/UEUch2HlOshAFXEYhtUvOoxTEUdhmF0huJ7RO93LqA/DwBJRYB3pdMr194Gf9KmanRgWVDqvnr0896hRJ4YFx0yGaU2GcrVi+Nw6U436MqzYw8Vm3HmnOMX8HkPz54rcPVxoZRp/fWVIrwjRqeZP8/CfCDqO+T2Geuff8x4udtePQD08DrI76erdSswpv8cQ1s3mlOj0CGf3mQBDelGITgG9Ucgv10OAUE5JLC/HnPLOGkmN+jHE1hjeCgYCe7i8vM5Uo//t23iaDD3dYHjdqP0VzfmyXH0YLiVaq0/5/BLD79JkKNdkKNdkKNdkKNdkKNdkKNdkKNdkKNdkKNdkKNdkKNdkKNdkKNdkKNdkKNcfd58wRMx+6IkAAAAASUVORK5CYII=;" parent="1" vertex="1">
          <mxGeometry x="12.74" y="180" width="323" height="140" as="geometry" />
        </mxCell>
        <mxCell id="AYwRItBsM_bN2aH5ezIg-3" value="" style="shape=image;imageAspect=0;aspect=fixed;verticalLabelPosition=bottom;verticalAlign=top;image=data:image/png,iVBORw0KGgoAAAANSUhEUgAAAWMAAACxCAMAAAAmnSxDAAADAFBMVEUAAAAAADMAAGYAAJkAAMwAAP8AMwAAMzMAM2YAM5kAM8wAM/8AZgAAZjMAZmYAZpkAZswAZv8AmQAAmTMAmWYAmZkAmcwAmf8AzAAAzDMAzGYAzJkAzMwAzP8A/wAA/zMA/2YA/5kA/8wA//8zAAAzADMzAGYzAJkzAMwzAP8zMwAzMzMzM2YzM5kzM8wzM/8zZgAzZjMzZmYzZpkzZswzZv8zmQAzmTMzmWYzmZkzmcwzmf8zzAAzzDMzzGYzzJkzzMwzzP8z/wAz/zMz/2Yz/5kz/8wz//9mAABmADNmAGZmAJlmAMxmAP9mMwBmMzNmM2ZmM5lmM8xmM/9mZgBmZjNmZmZmZplmZsxmZv9mmQBmmTNmmWZmmZlmmcxmmf9mzABmzDNmzGZmzJlmzMxmzP9m/wBm/zNm/2Zm/5lm/8xm//+ZAACZADOZAGaZAJmZAMyZAP+ZMwCZMzOZM2aZM5mZM8yZM/+ZZgCZZjOZZmaZZpmZZsyZZv+ZmQCZmTOZmWaZmZmZmcyZmf+ZzACZzDOZzGaZzJmZzMyZzP+Z/wCZ/zOZ/2aZ/5mZ/8yZ///MAADMADPMAGbMAJnMAMzMAP/MMwDMMzPMM2bMM5nMM8zMM//MZgDMZjPMZmbMZpnMZszMZv/MmQDMmTPMmWbMmZnMmczMmf/MzADMzDPMzGbMzJnMzMzMzP/M/wDM/zPM/2bM/5nM/8zM////AAD/ADP/AGb/AJn/AMz/AP//MwD/MzP/M2b/M5n/M8z/M///ZgD/ZjP/Zmb/Zpn/Zsz/Zv//mQD/mTP/mWb/mZn/mcz/mf//zAD/zDP/zGb/zJn/zMz/zP///wD//zP//2b//5n//8z///8AAAA9PT03NzcxMTEcHBwtLS0FBQUiIiIQEBC6urohISFubm4KCgoWFhYqKioXFxcPDw85OTkGBgZFRUU6OjooKCh+fn42NjZOTk5ZWVkbGxsUFBQZGRkrKysgICBxcXE+Pj4pKSkAAAAAAAAAAAAAAAAAAAAAAADm/mQtAAABAHRSTlP///////////////////////////////////////////////////////////////////////////////////////////////////////////////////////////////////////////////////////////////////////////////////////////////////////////////////////////////////////////////////////////////////////////////////////////////8A////////////////////////////////////////////AAAAAAAAZ3rRbgAAAAlwSFlzAAAOxAAADsQBlSsOGwAACBdJREFUeJztndFhhCAMhtmHfdiHfbLPrVOBIKigKAlazf/QXkEDfCJiDlL1E3FL3V2BD0gY80sY80sY80sY80sY80sY80sY80sY80sY80sY80sY80sY80sY80sY80sY80sY80sY80sY80sY80sY80sY80sY80sY80sY80sY80sY80sY8+tGxtaad8lCuaG3MQZjKlX6r4Jak+5ibN9G2AuMLaTexNiW6vIGlcaLexiDuaXYAYLC/XkP41cOFEGwvUNVyiMQNLLb7cZAU5VmKBTFZQ3ftg0ZT4P1dFyvptlYU9sK1zrJ2aCpShNhkoaDTVOK7T2qsF1UN29pPNpo74nXhqZFLc/Vpuo2aba07WUq5BMV1Ghrp7NTTjga7inCB0NseIVx++DVoAZjO4dQTjiOLzfpFBKNVRiTzqR2B9tfpRonTj6hw15KOr/BSzqE8bG1OmPad5PDW4p2mj6OcYO1HcakE2dhfC7nioTxuZwrEsbncq5IGJ/LuSJhfC7nil7FePGViw6/lkUtHC/GbN02ixzU9QodWcPq6EtepJp4GWvnF5mweu9I8JKs/A7B8zKhV1op9MIsig2nLQ7oeEMwc4VstLaAnKpjQJeqc6nQYJqLsTc+9QsFKr62rxhDSFRKz61ZMv7FA6D+VtosM1fIxOJWjOfSQEGhOpcLZWdsMteIWTr/kLFrXGzt4ogIYsq06HAlYGx+yY+Q+zAjY1eafgpj1wHr78mRsc0ZL5zYJjG20cjiiIxx/c2/WZGxu6KlCpmZMcBTGIP2HUGdYFweK/KHT3GscJeDkvFcXHGssG64KA1dlwu9zhhPPNOPa4zdIy2v07KCrmcpHCFJGM/FVRi7B3ahOpcL5WNc0JIxFGZ3iyMWOaY0/YtVcaOWjdehoiNrUDqg3HI/SM4XYrfQcELXWGHavjDhfQfBUavJC0rwDhKK+8H+Jc2tcT3zCkXtGutgjEfYlkULBIxjcQP68RkNYdz7vWFQa1XT5OPY2gsYh1HLNL2WUY0VJk0+jq29gHEYteDgmddorXmQHPHMOyPxu60kjOkkjEsSxt0SxudyrkgYn8u5ImF8LueKhPG5nCt6LWNZ77ZO//a6TdLbBnbXxtIuw214Ha4fQrla9VHrjylb1unXpezIqVVVH8e4dfSE2yJsy7iz19UJ1pIEZSs8gqO95Ksrbwy9InuwH8R1n+XXyNe0/v6oWp89jGAoqmLz75ZieaV7jKTh+S6qKmPXNgq1ED4csklqkhcRv8wo32PEpe0xHijaWfCx0NE+Zo/2RxmHZ15adMBb1kcZj9RTGL81soLTQxjTvs09TA9hTOwneJa2bZP4FcQqvMBLHBZiPSYOy3ufeqWG3RUXiy5MxaNUfJW8Lb7bG4OPVWK/3Ben0C0BJnHHPEW1BdP3xtsk8cY8R7VmSkxTfgljfgljfgljfgljfgljfgljfgljfgljfgljfgljftEwHhsVeqcexPGiaUTB2IU+6veo2G5vp1vF1V8PaAyU3S4CxmTuduj7doQhXjSN+hkPjgpdF8M6Vxp1MyatTo8xjvXaNOpnPHZ3AcupW5G2qpvx4J1IdY3enNUuYcxvTRjzWxPG/NaEMb81YcxvTRjzW7uf8WH06Z2yc2G86M7aRL2LcYJrlIqo207VeKqPSx0XdnVWB/Uyxt6A64gqRUZuOzXGQXXXJloTxlUDvvPOAR7NsQfSKcWadRHE8Y/O6sQa0JjxGsE47ggvNz+P8D1HUW/zpuvffGoxIvq5iiz0zxhjpNdawxJjU45UX1cpLvUOv7g1/dccc5BGAxgjRF2J3pgYp+AHpxmnuNQ7jENJulaRgmkaDWP8q0UhhTzQs9Y74Z43Kv1bkmPGTeFQ/xlj0kivdbXGgG2ryD9jTBrpta7WGLBtFflvjMdYk3dpfmvCmN+aMOa3Joz5rQljfmvCmN+aMOa3Joz5rQljfmvCmN/amxmPjQpd14sZy7rNQ8n6Y35jz1pH39UX37uOnhByZ8BnhnjRNKLY18QQFfqayONF04hofx6FXlWRXLLPlF/CmF/CmF/CmF/CmF/CmF/CmF/vZWz16lXCtvwfbg4NZWy1UnpUQ80aqVV6UNErjWRslFcFMqz7XXdpH2QcFrBXPTfUt/InGVfbiKuzExPY5m6dCNt0WHxMjON/HfsE43lLDTbfrVKFaYwOK1bjOOKGlDBuaOX/sO7UHFAp3Xg7gPmTJSwE5vQvMIaZAdK2ga2e8EBA4dC6rXY60J5SlOflPmSECunut0sC/BwvmA321e8bjH3f8z5iiCwMNjx0M9/vrL8Q1h/h+6pHBpiCld6kh5/gLOJnvEzab2LC9A8w9rc2tjx0U8gajowDlJ+nGHZ54SELxut0HS+Qmj/nXP2vbzAOlA2y8G0GFbfLIWN3b7vduYFxNo7qtK1umx4vgPuNnw0W5PfjzOXdoeHveRpHAYvQ/EAcRk5kjDrDGGqMTbT2oX78wxt9AgBxmgHhHzTOjCE7tL8fJ66fYgx+iDCpyTmODOUJxpiJ4zFO/D7IWPs5hQndV+M4bENawmFwgud+tDM22bwiWDBx+hdmyfARxjiFjT0OWfvpa+ja3mGk0oy2nbE/C+fK3tBifmw+M3cD/wBCzw9gB7N6TjPI36g0xSszLqTDTBU/W4sX02eEOfcXfJs/WD/PfBqss68tccjPglrGHbrLR5+cF+/XXS3Vd924N+gmxm0bw1+i79yx90kY80sY80sY80sY80sY80sY80sY80sY8+sPrcT7D9kBrsQAAAAASUVORK5CYII=;" parent="1" vertex="1">
          <mxGeometry x="447.61" y="30" width="274.78" height="137" as="geometry" />
        </mxCell>
        <mxCell id="AYwRItBsM_bN2aH5ezIg-4" value="" style="endArrow=open;html=1;strokeWidth=3;endFill=0;exitX=0;exitY=0.75;exitDx=0;exitDy=0;entryX=0.75;entryY=0;entryDx=0;entryDy=0;" parent="1" source="AYwRItBsM_bN2aH5ezIg-3" target="AYwRItBsM_bN2aH5ezIg-2" edge="1">
          <mxGeometry width="50" height="50" relative="1" as="geometry">
            <mxPoint x="430" y="320" as="sourcePoint" />
            <mxPoint x="480" y="270" as="targetPoint" />
          </mxGeometry>
        </mxCell>
        <mxCell id="AYwRItBsM_bN2aH5ezIg-5" value="&lt;font style=&quot;font-size: 16px&quot;&gt;(1) Instanciation&lt;br&gt;&lt;/font&gt;" style="text;html=1;align=center;verticalAlign=middle;resizable=0;points=[];autosize=1;" parent="1" vertex="1">
          <mxGeometry x="254.24" y="110" width="130" height="20" as="geometry" />
        </mxCell>
        <mxCell id="AYwRItBsM_bN2aH5ezIg-6" value="&lt;font style=&quot;font-size: 15px&quot;&gt;Traces&lt;/font&gt;" style="shape=cylinder3;whiteSpace=wrap;html=1;boundedLbl=1;backgroundOutline=1;size=15;" parent="1" vertex="1">
          <mxGeometry x="760" y="220" width="60" height="80" as="geometry" />
        </mxCell>
        <mxCell id="AYwRItBsM_bN2aH5ezIg-7" value="&lt;font style=&quot;font-size: 15px&quot;&gt;Self-Adaptive System&lt;br&gt;&lt;/font&gt;" style="shape=cube;whiteSpace=wrap;html=1;boundedLbl=1;backgroundOutline=1;darkOpacity=0.05;darkOpacity2=0.1;" parent="1" vertex="1">
          <mxGeometry x="480" y="195" width="160" height="110" as="geometry" />
        </mxCell>
        <mxCell id="AYwRItBsM_bN2aH5ezIg-77" value="" style="endArrow=classic;html=1;strokeWidth=3;entryX=-0.019;entryY=0.482;entryDx=0;entryDy=0;entryPerimeter=0;" parent="1" source="AYwRItBsM_bN2aH5ezIg-2" target="AYwRItBsM_bN2aH5ezIg-7" edge="1">
          <mxGeometry width="50" height="50" relative="1" as="geometry">
            <mxPoint x="430" y="240" as="sourcePoint" />
            <mxPoint x="480" y="190" as="targetPoint" />
          </mxGeometry>
        </mxCell>
        <mxCell id="AYwRItBsM_bN2aH5ezIg-78" value="&lt;font style=&quot;font-size: 15px&quot;&gt;(2) Test initialization&lt;br&gt;&lt;/font&gt;" style="text;html=1;align=center;verticalAlign=middle;resizable=0;points=[];autosize=1;" parent="1" vertex="1">
          <mxGeometry x="330" y="270" width="150" height="20" as="geometry" />
        </mxCell>
        <mxCell id="AYwRItBsM_bN2aH5ezIg-80" value="" style="endArrow=classic;html=1;strokeWidth=3;exitX=1.007;exitY=0.294;exitDx=0;exitDy=0;exitPerimeter=0;" parent="1" source="AYwRItBsM_bN2aH5ezIg-1" edge="1">
          <mxGeometry width="50" height="50" relative="1" as="geometry">
            <mxPoint x="430" y="240" as="sourcePoint" />
            <mxPoint x="500" y="310" as="targetPoint" />
          </mxGeometry>
        </mxCell>
        <mxCell id="AYwRItBsM_bN2aH5ezIg-81" value="&lt;font style=&quot;font-size: 15px&quot;&gt;(3) Test&amp;nbsp; Generation&lt;br&gt;&lt;/font&gt;" style="text;html=1;align=center;verticalAlign=middle;resizable=0;points=[];autosize=1;" parent="1" vertex="1">
          <mxGeometry x="410" y="350" width="150" height="20" as="geometry" />
        </mxCell>
        <mxCell id="AYwRItBsM_bN2aH5ezIg-82" value="&lt;font style=&quot;font-size: 15px&quot;&gt;Initial Configuration(s)&lt;/font&gt;" style="text;html=1;align=center;verticalAlign=middle;resizable=0;points=[];autosize=1;" parent="1" vertex="1">
          <mxGeometry x="94.24" y="310" width="160" height="20" as="geometry" />
        </mxCell>
        <mxCell id="AYwRItBsM_bN2aH5ezIg-83" value="" style="endArrow=classic;html=1;strokeWidth=3;entryX=0;entryY=0.5;entryDx=0;entryDy=0;entryPerimeter=0;exitX=0;exitY=0;exitDx=160;exitDy=65;exitPerimeter=0;" parent="1" source="AYwRItBsM_bN2aH5ezIg-7" target="AYwRItBsM_bN2aH5ezIg-6" edge="1">
          <mxGeometry width="50" height="50" relative="1" as="geometry">
            <mxPoint x="430" y="240" as="sourcePoint" />
            <mxPoint x="480" y="190" as="targetPoint" />
          </mxGeometry>
        </mxCell>
        <mxCell id="AYwRItBsM_bN2aH5ezIg-84" value="&lt;font style=&quot;font-size: 15px&quot;&gt;(4) Execution&lt;br&gt;&lt;/font&gt;" style="text;html=1;align=center;verticalAlign=middle;resizable=0;points=[];autosize=1;" parent="1" vertex="1">
          <mxGeometry x="650" y="230" width="100" height="20" as="geometry" />
        </mxCell>
        <mxCell id="AYwRItBsM_bN2aH5ezIg-85" value="" style="shape=flexArrow;endArrow=classic;startArrow=classic;html=1;strokeWidth=3;startWidth=37;startSize=10.65;endWidth=37;endSize=13.06;width=23;" parent="1" edge="1">
          <mxGeometry width="50" height="50" relative="1" as="geometry">
            <mxPoint x="830" y="230" as="sourcePoint" />
            <mxPoint x="910" y="150" as="targetPoint" />
          </mxGeometry>
        </mxCell>
        <mxCell id="AYwRItBsM_bN2aH5ezIg-86" value="&lt;font style=&quot;font-size: 16px&quot;&gt;Adaptation Policies&lt;br&gt;&lt;/font&gt;" style="whiteSpace=wrap;html=1;shape=mxgraph.basic.document" parent="1" vertex="1">
          <mxGeometry x="920" y="57" width="100" height="100" as="geometry" />
        </mxCell>
        <mxCell id="AYwRItBsM_bN2aH5ezIg-87" value="&lt;font style=&quot;font-size: 15px&quot;&gt;Temporal Properties&lt;br&gt;&lt;/font&gt;" style="whiteSpace=wrap;html=1;shape=mxgraph.basic.document" parent="1" vertex="1">
          <mxGeometry x="920" y="305" width="100" height="100" as="geometry" />
        </mxCell>
        <mxCell id="AYwRItBsM_bN2aH5ezIg-90" value="" style="endArrow=classic;endFill=1;endSize=6;html=1;strokeWidth=3;exitX=0.5;exitY=1;exitDx=0;exitDy=0;exitPerimeter=0;entryX=0.995;entryY=0.588;entryDx=0;entryDy=0;entryPerimeter=0;" parent="1" source="AYwRItBsM_bN2aH5ezIg-6" target="AYwRItBsM_bN2aH5ezIg-1" edge="1">
          <mxGeometry width="160" relative="1" as="geometry">
            <mxPoint x="660" y="450" as="sourcePoint" />
            <mxPoint x="540" y="460" as="targetPoint" />
            <Array as="points">
              <mxPoint x="790" y="440" />
            </Array>
          </mxGeometry>
        </mxCell>
        <mxCell id="AYwRItBsM_bN2aH5ezIg-91" value="&lt;font style=&quot;font-size: 15px&quot;&gt;(5) updates&lt;br&gt;&lt;/font&gt;" style="text;html=1;align=center;verticalAlign=middle;resizable=0;points=[];autosize=1;" parent="1" vertex="1">
          <mxGeometry x="540" y="415" width="90" height="20" as="geometry" />
        </mxCell>
        <mxCell id="k2H1D25Vc023D4_0LjpX-2" value="&lt;font style=&quot;font-size: 15px&quot;&gt;Usage model&lt;/font&gt;" style="text;html=1;align=center;verticalAlign=middle;resizable=0;points=[];autosize=1;" vertex="1" parent="1">
          <mxGeometry x="124.24" y="510" width="100" height="20" as="geometry" />
        </mxCell>
        <mxCell id="k2H1D25Vc023D4_0LjpX-3" value="" style="shape=flexArrow;endArrow=classic;startArrow=classic;html=1;strokeWidth=3;startWidth=37;startSize=10.65;endWidth=37;endSize=13.06;width=23;" edge="1" parent="1">
          <mxGeometry width="50" height="50" relative="1" as="geometry">
            <mxPoint x="827" y="270" as="sourcePoint" />
            <mxPoint x="910" y="340" as="targetPoint" />
          </mxGeometry>
        </mxCell>
      </root>
    </mxGraphModel>
  </diagram>
</mxfile>
